<svg width="512" height="512" viewBox="0 0 512 512" fill="none" xmlns="http://www.w3.org/2000/svg">
<g clip-path="url(#clip0_1081_30)">
<path d="M285.65 63.0772C267.276 55.6279 246.724 55.6279 228.35 63.0772L75.8912 124.891C69.3242 127.551 63.7008 132.111 59.7414 137.986C55.7819 143.862 53.6668 150.786 53.6668 157.871V247.867C63.1422 243.027 73.3902 239.489 84.1668 237.497V169.583L241.75 230.868V434.445L246.569 439.285C250.981 443.677 253.991 448.943 255.597 454.535C265.889 454.718 276.112 452.816 285.65 448.943L438.109 387.13C444.679 384.468 450.305 379.905 454.265 374.025C458.224 368.146 460.338 361.217 460.334 354.129V157.892C460.334 150.806 458.218 143.882 454.259 138.007C450.3 132.131 444.676 127.571 438.109 124.911L285.65 63.0772ZM239.818 91.3406C250.838 86.8754 263.163 86.8754 274.182 91.3406L408.219 145.671L353.929 166.635L200.9 107.119L239.818 91.3406ZM159.705 123.833L311.717 182.963L257.02 204.069L106.35 145.468L159.705 123.833ZM426.662 358.887L274.182 420.7L272.25 421.412V230.888L429.834 170.051V354.149C429.835 355.162 429.534 356.152 428.969 356.992C428.403 357.833 427.6 358.506 426.662 358.887ZM104.5 439C123.498 439 142.024 433.088 157.509 422.083L210.64 475.193C212.036 476.692 213.72 477.893 215.591 478.727C217.461 479.56 219.481 480.008 221.528 480.045C223.576 480.081 225.61 479.704 227.509 478.937C229.408 478.17 231.132 477.028 232.581 475.58C234.029 474.132 235.17 472.407 235.937 470.508C236.704 468.609 237.081 466.576 237.045 464.528C237.009 462.48 236.561 460.461 235.727 458.59C234.894 456.72 233.692 455.036 232.193 453.64L179.083 400.509C190.966 383.79 196.887 363.563 195.895 343.075C194.903 322.588 187.056 303.027 173.613 287.534C160.171 272.042 141.913 261.515 121.769 257.644C101.626 253.773 80.7665 256.783 62.539 266.19C44.3115 275.597 29.7734 290.855 21.2585 309.516C12.7436 328.177 10.7458 349.158 15.5857 369.09C20.4257 389.023 31.8227 406.751 47.9472 419.429C64.0717 432.107 83.9884 438.999 104.5 439ZM104.5 408.5C88.322 408.5 72.8064 402.073 61.3666 390.633C49.9269 379.194 43.5002 363.678 43.5002 347.5C43.5002 331.322 49.9269 315.806 61.3666 304.366C72.8064 292.927 88.322 286.5 104.5 286.5C120.678 286.5 136.194 292.927 147.634 304.366C159.073 315.806 165.5 331.322 165.5 347.5C165.5 363.678 159.073 379.194 147.634 390.633C136.194 402.073 120.678 408.5 104.5 408.5Z" fill="black"/>
</g>
<defs>
<clipPath id="clip0_1081_30">
<rect width="512" height="512" fill="white"/>
</clipPath>
</defs>
</svg>
